# xmcd
#
# Track frame offsets:
#	150
#	18702
#	35404
#	49449
#	70157
#	86886
#	98360
#	121909
#	139382
#	155506
#
# Disc length: 2400 seconds
#
# Revision: 0
# Processed by: cddbd v1.5.1PL0 Copyright (c) Steve Scherf et al.
# Submitted via: audiograbber 1.83.01
#
DISCID=88095e0a
DTITLE=LeDoux, Chris - Stampede - LeDoux, Chris - Stampede
DYEAR=1996
DGENRE=Country
TTITLE0=Gravitational Pull
TTITLE1=Five Dollar Fine
TTITLE2=Now That's All Right With Me
TTITLE3=Take Me To The Rodeo
TTITLE4=Fathers And Sons
TTITLE5=I'll Get The Job Done
TTITLE6=Stampede
TTITLE7=When I Say Forever
TTITLE8=Calico Moon
TTITLE9=That's What Loving You Means To Me
EXTD=
EXTT0=
EXTT1=
EXTT2=
EXTT3=
EXTT4=
EXTT5=
EXTT6=
EXTT7=
EXTT8=
EXTT9=
PLAYORDER=
